<svg id="Layer_1" data-name="Layer 1" xmlns="http://www.w3.org/2000/svg" viewBox="0 0 284.47 70.71"><defs><style>.cls-1{font-size:67.22px;fill:#231f20;font-family:Adam;letter-spacing:0.15em;}.cls-2{fill:#326b92;}.cls-3{fill:#013142;}</style></defs><title>zodie_full</title><text class="cls-1" transform="translate(45.85 56.46)">ZODIE</text><polygon class="cls-2" points="20.4 10.09 22.05 23.05 26.76 18.17 24.9 24.69 31.42 22.83 26.55 27.55 41.53 29.2 26.55 30.84 31.42 35.56 24.9 33.7 26.76 40.22 22.05 35.35 20.4 51.69 18.75 35.35 14.03 40.22 15.89 33.7 9.37 35.56 14.25 30.84 0 29.2 14.25 27.55 9.37 22.83 15.89 24.69 14.03 18.17 18.75 23.05 20.4 10.09"/><polygon class="cls-3" points="5.61 11.19 6.39 14.19 8.33 13.97 7.18 15.55 8.33 17.12 6.39 16.91 5.61 20.65 4.82 16.91 2.88 17.12 4.04 15.55 2.88 13.97 4.82 14.19 5.61 11.19"/></svg>